<svg id="Слой_1" data-name="Слой 1" xmlns="http://www.w3.org/2000/svg" viewBox="0 0 346.68 346.68"><defs><style>.cls-3{fill:#5b6ec0}.cls-4{fill:#fff}</style></defs><circle cx="173.34" cy="173.34" r="173.34" style="isolation:isolate" opacity=".6" fill="#5b6ec0"/><circle cx="173.34" cy="173.34" r="125.1" style="isolation:isolate" opacity=".8" fill="#5b6ec0"/><circle class="cls-3" cx="173.34" cy="173.34" r="74.58"/><circle class="cls-3" cx="173.34" cy="173.34" r="74.58"/><path class="cls-4" d="M211.91 136.65h-77.14a4.8 4.8 0 0 0-4.8 4.8V192a4.8 4.8 0 0 0 4.8 4.8h29.1v.29a9 9 0 0 1-9 9 1.92 1.92 0 1 0 0 3.84h.13a1.93 1.93 0 0 0 .39 0h35.91a1.93 1.93 0 0 0 .39 0h.14a1.92 1.92 0 1 0 0-3.84 9 9 0 0 1-9-9v-.29h29.1a4.8 4.8 0 0 0 4.8-4.8v-50.55a4.8 4.8 0 0 0-4.82-4.8zM164 206.19a12.82 12.82 0 0 0 3.74-9.06v-.3H179v.3a12.82 12.82 0 0 0 3.74 9.06H164zM212.87 192a1 1 0 0 1-1 1h-30.59a1.92 1.92 0 0 0-.78 0h-14.32a1.92 1.92 0 0 0-.78 0h-30.63a1 1 0 0 1-1-1v-11h79.06v11zm0-14.8h-79.06v-35.75a1 1 0 0 1 1-1h77.14a1 1 0 0 1 1 1v35.79z"/><path class="cls-4" d="M182.46 158.28a1.92 1.92 0 0 0-1.2-1.68l-15.54-6.3h-1.65l-.09.05a1.91 1.91 0 0 0-.24.2l-.08.09-.07.09v1.85l6.31 15.57a1.92 1.92 0 0 0 1.68 1.2h.1a1.92 1.92 0 0 0 1.7-1l2-3.76 3.09 3.09a1.92 1.92 0 0 0 2.71-2.71l-3.09-3.09 3.76-2a1.92 1.92 0 0 0 .61-1.6zm-8.87 1.59h-.07l-.09.05-.15.11-.06.05-.08.07a1.93 1.93 0 0 0-.24.3l-.05.09v.07l-1.26 2.4-3.05-7.54 7.46 3.13z"/><circle class="cls-4" cx="173.55" cy="186.96" r="2.59"/></svg>