<svg xmlns="http://www.w3.org/2000/svg" viewBox="0 0 2502.11 392.79"><title>logo-white_1</title><g id="Слой_2" data-name="Слой 2"><g id="Слой_1-2" data-name="Слой 1"><rect width="2502.11" height="392.79" rx="196.39" ry="196.39" fill="#fff"/><path d="M247.71,276.92H216.23l-67.44-83v83H122V113.12h26.78v79.32l66.32-79.32h29.35l-66.1,79.1Z" fill="#5b6ec0"/><path d="M222.31,113.12h87.6V276.92H283V136.09H210.76" fill="#5b6ec0"/><path d="M569.46,277.14H538l-67.48-83.06v83.06H443.7V113.27h26.79v79.36l66.36-79.36h29.37l-66.13,79.13Z" fill="#5b6ec0"/><path d="M692.76,277.14l-16.36-45.51H613.73l-16,45.51H569.46L630.77,112.6h29.14l61.31,164.54Zm-23.43-68.6L654,163.94q-1.68-4.48-4.65-14.12t-4.09-14.12a251.44,251.44,0,0,1-8.85,30.15l-14.8,42.71Z" fill="#5b6ec0"/><path d="M868.62,277.14h-31.5l-67.48-83.06v83.06H742.86V113.27h26.79v79.36L836,113.27h29.37l-66.13,79.13Z" fill="#5b6ec0"/><path d="M1075.87,277.14H1049V136.25h-72.3V277.14H949.88V113.27h126Z" fill="#5b6ec0"/><path d="M1227.52,162.82q0,25.67-16.81,39.34t-47.86,13.67h-17v61.31H1119V113.27h47.19q30.71,0,46,12.55T1227.52,162.82Zm-81.71,30.49H1160q20.62,0,30.26-7.17t9.64-22.42q0-14.12-8.63-21.07t-26.9-6.95h-18.61Z" fill="#5b6ec0"/><path d="M1361.91,277.14l-16.36-45.51h-62.66l-16,45.51h-28.25l61.31-164.54h29.14l61.31,164.54Zm-23.43-68.6-15.36-44.61q-1.68-4.48-4.65-14.12t-4.09-14.12a251.44,251.44,0,0,1-8.85,30.15l-14.8,42.71Z" fill="#5b6ec0"/><path d="M1412,113.27h48.65q33.85,0,48.93,9.86t15.08,31.16q0,14.35-7.4,23.88t-21.3,12v1.12q17.26,3.25,25.39,12.83t8.13,25.95q0,22.08-15.41,34.58t-42.87,12.5H1412Zm26.79,67.7h25.78q16.81,0,24.55-5.32t7.73-18.1q0-11.54-8.35-16.7T1462,135.69h-23.2Zm0,21.75v51.9h28.47q16.81,0,25.39-6.45t8.57-20.34q0-12.78-8.74-18.94t-26.56-6.17Z" fill="#5b6ec0"/><path d="M1563.56,113.27h24.55v85.19q0,13.34-.67,27t-1,18.44h1l83.73-130.58h31.27V277.14h-24.66V192.63q0-19.39,2.13-47.08h-.9l-84.06,131.59h-31.38Z" fill="#5b6ec0"/><path d="M1868.32,277.14h-26.79V136.25h-46.63q-8.85,71.74-14.18,97.63t-15,36q-9.64,10.15-25.56,9.81a43.63,43.63,0,0,1-15.58-2.8v-22.3a30.87,30.87,0,0,0,12.44,2.8q8.07,0,12.61-9.7t10-42.87q5.44-33.18,12.95-91.58h95.72Z" fill="#5b6ec0"/><path d="M2025.8,227.83q0,24.1-16.2,36.71t-46.91,12.61h-51.11V113.27h26.79v66.58h23.2q31.16,0,47.69,12.38T2025.8,227.83Zm-87.43,26.79h22.53q18,0,27.74-6.33t9.7-20.46q0-13.22-9.3-19.39t-31.16-6.17h-19.5Z" fill="#5b6ec0"/><path d="M2187.77,277.14h-26.9V203.28h-75.55v73.87h-26.79V113.27h26.79v67h75.55v-67h26.9Z" fill="#5b6ec0"/><path d="M2376.41,195q0,40-20,62.21t-56.66,22.19q-37.1,0-57-22t-19.9-62.6q0-40.57,20-62.32T2300,110.7q36.54,0,56.49,22.08T2376.41,195Zm-125.09,0q0,30.26,12.22,45.9t36.2,15.64q23.87,0,36-15.47T2347.94,195q0-30.15-12-45.73T2300,133.67q-24.1,0-36.37,15.58T2251.32,195Z" fill="#5b6ec0"/></g></g></svg>