<svg id="Слой_1" data-name="Слой 1" xmlns="http://www.w3.org/2000/svg" viewBox="0 0 346.68 346.68"><defs><style>.cls-1,.cls-2,.cls-3{fill:#5b6ec0;}.cls-1{opacity:0.6;}.cls-1,.cls-2{isolation:isolate;}.cls-2{opacity:0.8;}.cls-4{fill:#fff;}</style></defs><title>Курс</title><circle class="cls-1" cx="173.34" cy="173.34" r="173.34"/><circle class="cls-2" cx="173.34" cy="173.34" r="125.1"/><circle class="cls-3" cx="173.34" cy="173.34" r="74.58"/><circle class="cls-3" cx="173.34" cy="173.34" r="74.58"/><path class="cls-4" d="M211.91,136.65H134.77a4.8,4.8,0,0,0-4.8,4.8V192a4.8,4.8,0,0,0,4.8,4.8h29.1v0.29a9,9,0,0,1-9,9,1.92,1.92,0,1,0,0,3.84H155a1.93,1.93,0,0,0,.39,0H191.3a1.93,1.93,0,0,0,.39,0h0.14a1.92,1.92,0,1,0,0-3.84,9,9,0,0,1-9-9v-0.29h29.1a4.8,4.8,0,0,0,4.8-4.8V141.45A4.8,4.8,0,0,0,211.91,136.65ZM164,206.19a12.82,12.82,0,0,0,3.74-9.06h0v-0.3H179v0.3h0a12.82,12.82,0,0,0,3.74,9.06H164ZM212.87,192a1,1,0,0,1-1,1H181.28a1.92,1.92,0,0,0-.78,0H166.18a1.92,1.92,0,0,0-.78,0H134.77a1,1,0,0,1-1-1v-11h79.06v11Zm0-14.8H133.81V141.45a1,1,0,0,1,1-1h77.14a1,1,0,0,1,1,1v35.79h0Z" transform="translate(0 0)"/><path class="cls-4" d="M182.46,158.28a1.92,1.92,0,0,0-1.2-1.68l-15.54-6.3h0l0,0-0.12,0-0.07,0-0.11,0h-0.64l-0.1,0-0.09,0-0.09,0-0.1,0-0.07,0h0l-0.1,0-0.08,0-0.08,0-0.09.05,0,0a1.91,1.91,0,0,0-.24.2l-0.08.09,0,0-0.07.09,0,0.06,0,0.08,0,0.08,0,0.07,0,0.1h0l0,0.07,0,0.1,0,0.09,0,0.09,0,0.1v0.09s0,0.06,0,.1,0,0.06,0,.09,0,0.06,0,.09,0,0.06,0,.1v0.09l0,0.1,0,0.09,0,0.09,0,0.1,0,0.07,6.31,15.57a1.92,1.92,0,0,0,1.68,1.2h0.1a1.92,1.92,0,0,0,1.7-1l2-3.76,3.09,3.09a1.92,1.92,0,0,0,2.71-2.71l-3.09-3.09,3.76-2A1.92,1.92,0,0,0,182.46,158.28Zm-8.87,1.59h0l-0.07,0-0.09.05h0l-0.15.11-0.06.05-0.08.07a1.93,1.93,0,0,0-.24.3l-0.05.09,0,0.07v0l-1.26,2.4-3.05-7.54L176,158.6Z" transform="translate(0 0)"/><circle class="cls-4" cx="173.55" cy="186.96" r="2.59"/></svg>